<svg xmlns="http://www.w3.org/2000/svg" viewBox="0 0 1240 1754" role="img" aria-label="Example resume placeholder"><rect width="1240" height="1754" fill="#f3f3f1"/><rect x="90" y="70" width="1060" height="1614" fill="#ffffff" stroke="#d7d7d3" stroke-width="3"/><text x="150" y="190" font-family="Arial,sans-serif" font-size="34" font-weight="700" fill="#777773">EXAMPLE RESUME</text><text x="150" y="290" font-family="Arial,sans-serif" font-size="70" font-weight="700" fill="#222222">YOUR NAME</text><text x="150" y="350" font-family="Arial,sans-serif" font-size="30" fill="#666666">Product Designer</text><line x1="150" y1="420" x2="1090" y2="420" stroke="#ddddda" stroke-width="3"/><text x="150" y="500" font-family="Arial,sans-serif" font-size="28" font-weight="700" fill="#333333">EXPERIENCE</text><rect x="150" y="540" width="760" height="20" rx="10" fill="#ddddda"/><rect x="150" y="585" width="900" height="16" rx="8" fill="#ececea"/><rect x="150" y="620" width="840" height="16" rx="8" fill="#ececea"/><rect x="150" y="700" width="700" height="20" rx="10" fill="#ddddda"/><rect x="150" y="745" width="920" height="16" rx="8" fill="#ececea"/><rect x="150" y="780" width="810" height="16" rx="8" fill="#ececea"/><text x="150" y="900" font-family="Arial,sans-serif" font-size="28" font-weight="700" fill="#333333">SELECTED WORK</text><rect x="150" y="940" width="940" height="16" rx="8" fill="#ececea"/><rect x="150" y="975" width="880" height="16" rx="8" fill="#ececea"/><rect x="150" y="1010" width="760" height="16" rx="8" fill="#ececea"/><text x="150" y="1130" font-family="Arial,sans-serif" font-size="28" font-weight="700" fill="#333333">SKILLS</text><rect x="150" y="1170" width="680" height="16" rx="8" fill="#ececea"/><rect x="150" y="1205" width="790" height="16" rx="8" fill="#ececea"/><text x="150" y="1340" font-family="Arial,sans-serif" font-size="28" font-weight="700" fill="#333333">CONTACT</text><text x="150" y="1390" font-family="Arial,sans-serif" font-size="24" fill="#777773">hello@example.com · https://example.com</text><text x="150" y="1570" font-family="Arial,sans-serif" font-size="22" fill="#999995">Replace this placeholder with your own resume before publishing.</text></svg>